<mxfile host="app.diagrams.net" modified="2021-01-04T21:09:41.333Z" agent="5.0 (Windows NT 10.0; Win64; x64) AppleWebKit/537.36 (KHTML, like Gecko) Chrome/87.0.4280.88 Safari/537.36" etag="_uTYp0ptLhn7KsmH_Dn4" version="14.1.8" type="github">
  <diagram id="Wb_VTChDjm3YDT4XvbSB" name="Page-1">
    <mxGraphModel dx="1718" dy="935" grid="1" gridSize="10" guides="1" tooltips="1" connect="1" arrows="1" fold="1" page="1" pageScale="1" pageWidth="827" pageHeight="1169" background="none" math="0" shadow="0">
      <root>
        <mxCell id="0" />
        <mxCell id="1" parent="0" />
        <mxCell id="uUtuyeQXyfnxlW9JzthO-1" value="Cliente" style="shape=umlActor;verticalLabelPosition=bottom;verticalAlign=top;html=1;outlineConnect=0;" vertex="1" parent="1">
          <mxGeometry x="3" y="140" width="40" height="70" as="geometry" />
        </mxCell>
        <mxCell id="uUtuyeQXyfnxlW9JzthO-2" value="" style="endArrow=classic;html=1;" edge="1" parent="1">
          <mxGeometry width="50" height="50" relative="1" as="geometry">
            <mxPoint x="63" y="174.5" as="sourcePoint" />
            <mxPoint x="133" y="174.5" as="targetPoint" />
          </mxGeometry>
        </mxCell>
        <mxCell id="uUtuyeQXyfnxlW9JzthO-3" value="login" style="ellipse;whiteSpace=wrap;html=1;" vertex="1" parent="1">
          <mxGeometry x="153" y="135" width="120" height="80" as="geometry" />
        </mxCell>
        <mxCell id="uUtuyeQXyfnxlW9JzthO-4" value="registar" style="ellipse;whiteSpace=wrap;html=1;" vertex="1" parent="1">
          <mxGeometry x="313" y="40" width="120" height="80" as="geometry" />
        </mxCell>
        <mxCell id="uUtuyeQXyfnxlW9JzthO-5" value="editar perfil&lt;br&gt;" style="ellipse;whiteSpace=wrap;html=1;" vertex="1" parent="1">
          <mxGeometry x="143" y="276.72" width="120" height="80" as="geometry" />
        </mxCell>
        <mxCell id="uUtuyeQXyfnxlW9JzthO-6" value="atualizar nome" style="ellipse;whiteSpace=wrap;html=1;" vertex="1" parent="1">
          <mxGeometry x="3" y="400" width="120" height="80" as="geometry" />
        </mxCell>
        <mxCell id="uUtuyeQXyfnxlW9JzthO-7" value="atualizar apelido" style="ellipse;whiteSpace=wrap;html=1;" vertex="1" parent="1">
          <mxGeometry x="163" y="400" width="120" height="80" as="geometry" />
        </mxCell>
        <mxCell id="uUtuyeQXyfnxlW9JzthO-30" value="atualizar foto" style="ellipse;whiteSpace=wrap;html=1;" vertex="1" parent="1">
          <mxGeometry x="333" y="400" width="120" height="80" as="geometry" />
        </mxCell>
        <mxCell id="uUtuyeQXyfnxlW9JzthO-31" value="" style="endArrow=classic;html=1;" edge="1" parent="1" source="uUtuyeQXyfnxlW9JzthO-3" target="uUtuyeQXyfnxlW9JzthO-4">
          <mxGeometry width="50" height="50" relative="1" as="geometry">
            <mxPoint x="263" y="120.00000000000011" as="sourcePoint" />
            <mxPoint x="333" y="120.00000000000011" as="targetPoint" />
          </mxGeometry>
        </mxCell>
        <mxCell id="uUtuyeQXyfnxlW9JzthO-32" value="" style="endArrow=classic;html=1;entryX=0.5;entryY=0;entryDx=0;entryDy=0;" edge="1" parent="1" source="uUtuyeQXyfnxlW9JzthO-3" target="uUtuyeQXyfnxlW9JzthO-5">
          <mxGeometry width="50" height="50" relative="1" as="geometry">
            <mxPoint x="272.9980013722934" y="240.00083050688528" as="sourcePoint" />
            <mxPoint x="343.3660819127556" y="198.19244300841564" as="targetPoint" />
          </mxGeometry>
        </mxCell>
        <mxCell id="uUtuyeQXyfnxlW9JzthO-33" value="" style="endArrow=classic;html=1;entryX=0.052;entryY=0.791;entryDx=0;entryDy=0;entryPerimeter=0;dashed=1;exitX=0.783;exitY=0.031;exitDx=0;exitDy=0;exitPerimeter=0;" edge="1" parent="1" source="uUtuyeQXyfnxlW9JzthO-6" target="uUtuyeQXyfnxlW9JzthO-5">
          <mxGeometry width="50" height="50" relative="1" as="geometry">
            <mxPoint x="103" y="396.72" as="sourcePoint" />
            <mxPoint x="153" y="346.72" as="targetPoint" />
          </mxGeometry>
        </mxCell>
        <mxCell id="uUtuyeQXyfnxlW9JzthO-34" value="" style="endArrow=classic;html=1;entryX=0.5;entryY=1;entryDx=0;entryDy=0;dashed=1;exitX=0.5;exitY=0;exitDx=0;exitDy=0;" edge="1" parent="1" source="uUtuyeQXyfnxlW9JzthO-7" target="uUtuyeQXyfnxlW9JzthO-5">
          <mxGeometry width="50" height="50" relative="1" as="geometry">
            <mxPoint x="193.00000000000023" y="406.72" as="sourcePoint" />
            <mxPoint x="239.24" y="350" as="targetPoint" />
          </mxGeometry>
        </mxCell>
        <mxCell id="uUtuyeQXyfnxlW9JzthO-35" value="" style="endArrow=classic;html=1;entryX=1;entryY=0.5;entryDx=0;entryDy=0;dashed=1;" edge="1" parent="1" source="uUtuyeQXyfnxlW9JzthO-30" target="uUtuyeQXyfnxlW9JzthO-5">
          <mxGeometry width="50" height="50" relative="1" as="geometry">
            <mxPoint x="483.0000000000002" y="350" as="sourcePoint" />
            <mxPoint x="529.24" y="293.28" as="targetPoint" />
          </mxGeometry>
        </mxCell>
        <mxCell id="uUtuyeQXyfnxlW9JzthO-36" value="extend" style="text;html=1;strokeColor=none;fillColor=none;align=center;verticalAlign=middle;whiteSpace=wrap;rounded=0;" vertex="1" parent="1">
          <mxGeometry x="223" y="366.72" width="40" height="20" as="geometry" />
        </mxCell>
        <mxCell id="uUtuyeQXyfnxlW9JzthO-37" value="extend" style="text;html=1;strokeColor=none;fillColor=none;align=center;verticalAlign=middle;whiteSpace=wrap;rounded=0;" vertex="1" parent="1">
          <mxGeometry x="83" y="346.72" width="40" height="20" as="geometry" />
        </mxCell>
        <mxCell id="uUtuyeQXyfnxlW9JzthO-38" value="extend" style="text;html=1;strokeColor=none;fillColor=none;align=center;verticalAlign=middle;whiteSpace=wrap;rounded=0;" vertex="1" parent="1">
          <mxGeometry x="320" y="346.72" width="40" height="20" as="geometry" />
        </mxCell>
        <mxCell id="uUtuyeQXyfnxlW9JzthO-39" value="" style="endArrow=classic;html=1;dashed=1;exitX=1;exitY=0.5;exitDx=0;exitDy=0;" edge="1" parent="1" source="uUtuyeQXyfnxlW9JzthO-3">
          <mxGeometry width="50" height="50" relative="1" as="geometry">
            <mxPoint x="333.0000000000002" y="203.36" as="sourcePoint" />
            <mxPoint x="460" y="175" as="targetPoint" />
          </mxGeometry>
        </mxCell>
        <mxCell id="uUtuyeQXyfnxlW9JzthO-40" value="include" style="text;html=1;strokeColor=none;fillColor=none;align=center;verticalAlign=middle;whiteSpace=wrap;rounded=0;" vertex="1" parent="1">
          <mxGeometry x="373" y="150" width="40" height="20" as="geometry" />
        </mxCell>
        <mxCell id="uUtuyeQXyfnxlW9JzthO-41" value="carrinho de compras" style="ellipse;whiteSpace=wrap;html=1;" vertex="1" parent="1">
          <mxGeometry x="460" y="135" width="120" height="80" as="geometry" />
        </mxCell>
        <mxCell id="uUtuyeQXyfnxlW9JzthO-42" value="pesquisar álbuns" style="ellipse;whiteSpace=wrap;html=1;" vertex="1" parent="1">
          <mxGeometry x="470" y="462" width="120" height="80" as="geometry" />
        </mxCell>
        <mxCell id="uUtuyeQXyfnxlW9JzthO-43" value="título" style="ellipse;whiteSpace=wrap;html=1;" vertex="1" parent="1">
          <mxGeometry x="208.6" y="633.32" width="120" height="80" as="geometry" />
        </mxCell>
        <mxCell id="uUtuyeQXyfnxlW9JzthO-44" value="género" style="ellipse;whiteSpace=wrap;html=1;" vertex="1" parent="1">
          <mxGeometry x="414" y="633.32" width="120" height="80" as="geometry" />
        </mxCell>
        <mxCell id="uUtuyeQXyfnxlW9JzthO-45" value="artista" style="ellipse;whiteSpace=wrap;html=1;" vertex="1" parent="1">
          <mxGeometry x="597" y="633.32" width="120" height="80" as="geometry" />
        </mxCell>
        <mxCell id="uUtuyeQXyfnxlW9JzthO-46" value="" style="endArrow=classic;html=1;dashed=1;entryX=0.01;entryY=0.735;entryDx=0;entryDy=0;entryPerimeter=0;" edge="1" parent="1" target="uUtuyeQXyfnxlW9JzthO-42">
          <mxGeometry width="50" height="50" relative="1" as="geometry">
            <mxPoint x="308.6" y="645.0400000000001" as="sourcePoint" />
            <mxPoint x="537.3917134764171" y="532.133731897192" as="targetPoint" />
          </mxGeometry>
        </mxCell>
        <mxCell id="uUtuyeQXyfnxlW9JzthO-47" value="extend" style="text;html=1;strokeColor=none;fillColor=none;align=center;verticalAlign=middle;whiteSpace=wrap;rounded=0;" vertex="1" parent="1">
          <mxGeometry x="320" y="585.0000000000001" width="40" height="20" as="geometry" />
        </mxCell>
        <mxCell id="uUtuyeQXyfnxlW9JzthO-48" value="" style="endArrow=classic;html=1;entryX=0.419;entryY=1.027;entryDx=0;entryDy=0;entryPerimeter=0;dashed=1;exitX=0.622;exitY=0;exitDx=0;exitDy=0;exitPerimeter=0;" edge="1" parent="1" source="uUtuyeQXyfnxlW9JzthO-44" target="uUtuyeQXyfnxlW9JzthO-42">
          <mxGeometry width="50" height="50" relative="1" as="geometry">
            <mxPoint x="453.76" y="634.28" as="sourcePoint" />
            <mxPoint x="579.9999999999999" y="550" as="targetPoint" />
          </mxGeometry>
        </mxCell>
        <mxCell id="uUtuyeQXyfnxlW9JzthO-49" value="extend" style="text;html=1;strokeColor=none;fillColor=none;align=center;verticalAlign=middle;whiteSpace=wrap;rounded=0;" vertex="1" parent="1">
          <mxGeometry x="454" y="585" width="40" height="20" as="geometry" />
        </mxCell>
        <mxCell id="uUtuyeQXyfnxlW9JzthO-50" value="" style="endArrow=classic;html=1;entryX=1;entryY=1;entryDx=0;entryDy=0;dashed=1;" edge="1" parent="1" target="uUtuyeQXyfnxlW9JzthO-42">
          <mxGeometry width="50" height="50" relative="1" as="geometry">
            <mxPoint x="646.88" y="633.4" as="sourcePoint" />
            <mxPoint x="684.48" y="550.0000000000001" as="targetPoint" />
          </mxGeometry>
        </mxCell>
        <mxCell id="uUtuyeQXyfnxlW9JzthO-51" value="extend" style="text;html=1;strokeColor=none;fillColor=none;align=center;verticalAlign=middle;whiteSpace=wrap;rounded=0;" vertex="1" parent="1">
          <mxGeometry x="580" y="595.0400000000001" width="40" height="20" as="geometry" />
        </mxCell>
        <mxCell id="uUtuyeQXyfnxlW9JzthO-52" value="" style="endArrow=classic;html=1;entryX=0.333;entryY=0;entryDx=0;entryDy=0;entryPerimeter=0;" edge="1" parent="1" target="uUtuyeQXyfnxlW9JzthO-42">
          <mxGeometry width="50" height="50" relative="1" as="geometry">
            <mxPoint x="510" y="217" as="sourcePoint" />
            <mxPoint x="710" y="330" as="targetPoint" />
          </mxGeometry>
        </mxCell>
        <mxCell id="uUtuyeQXyfnxlW9JzthO-53" value="visualizar álbuns comprados" style="ellipse;whiteSpace=wrap;html=1;" vertex="1" parent="1">
          <mxGeometry x="597" y="10" width="120" height="80" as="geometry" />
        </mxCell>
        <mxCell id="uUtuyeQXyfnxlW9JzthO-54" value="" style="endArrow=classic;html=1;entryX=0;entryY=1;entryDx=0;entryDy=0;" edge="1" parent="1" target="uUtuyeQXyfnxlW9JzthO-53">
          <mxGeometry width="50" height="50" relative="1" as="geometry">
            <mxPoint x="550.0007963005396" y="139.99517900982448" as="sourcePoint" />
            <mxPoint x="620.4040877187169" y="98.21351041701165" as="targetPoint" />
          </mxGeometry>
        </mxCell>
        <mxCell id="uUtuyeQXyfnxlW9JzthO-55" value="comprar albúns" style="ellipse;whiteSpace=wrap;html=1;" vertex="1" parent="1">
          <mxGeometry x="690" y="130" width="120" height="80" as="geometry" />
        </mxCell>
        <mxCell id="uUtuyeQXyfnxlW9JzthO-56" value="" style="endArrow=classic;html=1;dashed=1;exitX=1;exitY=0.5;exitDx=0;exitDy=0;" edge="1" parent="1">
          <mxGeometry width="50" height="50" relative="1" as="geometry">
            <mxPoint x="585" y="174.58" as="sourcePoint" />
            <mxPoint x="690" y="175" as="targetPoint" />
          </mxGeometry>
        </mxCell>
        <mxCell id="uUtuyeQXyfnxlW9JzthO-58" value="remover" style="ellipse;whiteSpace=wrap;html=1;" vertex="1" parent="1">
          <mxGeometry x="530" y="316.72" width="120" height="80" as="geometry" />
        </mxCell>
        <mxCell id="uUtuyeQXyfnxlW9JzthO-61" value="include" style="text;html=1;strokeColor=none;fillColor=none;align=center;verticalAlign=middle;whiteSpace=wrap;rounded=0;" vertex="1" parent="1">
          <mxGeometry x="610" y="150" width="40" height="20" as="geometry" />
        </mxCell>
        <mxCell id="uUtuyeQXyfnxlW9JzthO-62" value="acrescentar" style="ellipse;whiteSpace=wrap;html=1;" vertex="1" parent="1">
          <mxGeometry x="680" y="320" width="120" height="80" as="geometry" />
        </mxCell>
        <mxCell id="uUtuyeQXyfnxlW9JzthO-64" value="" style="endArrow=classic;html=1;entryX=0.822;entryY=0.938;entryDx=0;entryDy=0;dashed=1;entryPerimeter=0;" edge="1" parent="1" source="uUtuyeQXyfnxlW9JzthO-58" target="uUtuyeQXyfnxlW9JzthO-41">
          <mxGeometry width="50" height="50" relative="1" as="geometry">
            <mxPoint x="600" y="300" as="sourcePoint" />
            <mxPoint x="580" y="256.72" as="targetPoint" />
          </mxGeometry>
        </mxCell>
        <mxCell id="uUtuyeQXyfnxlW9JzthO-65" value="extend" style="text;html=1;strokeColor=none;fillColor=none;align=center;verticalAlign=middle;whiteSpace=wrap;rounded=0;" vertex="1" parent="1">
          <mxGeometry x="580" y="270" width="40" height="20" as="geometry" />
        </mxCell>
        <mxCell id="uUtuyeQXyfnxlW9JzthO-66" value="" style="endArrow=classic;html=1;entryX=0.961;entryY=0.781;entryDx=0;entryDy=0;dashed=1;exitX=0.333;exitY=0;exitDx=0;exitDy=0;entryPerimeter=0;exitPerimeter=0;" edge="1" parent="1" source="uUtuyeQXyfnxlW9JzthO-62" target="uUtuyeQXyfnxlW9JzthO-41">
          <mxGeometry width="50" height="50" relative="1" as="geometry">
            <mxPoint x="750" y="298.36" as="sourcePoint" />
            <mxPoint x="730" y="255.08000000000004" as="targetPoint" />
          </mxGeometry>
        </mxCell>
        <mxCell id="uUtuyeQXyfnxlW9JzthO-67" value="extend" style="text;html=1;strokeColor=none;fillColor=none;align=center;verticalAlign=middle;whiteSpace=wrap;rounded=0;" vertex="1" parent="1">
          <mxGeometry x="690" y="270" width="40" height="20" as="geometry" />
        </mxCell>
        <mxCell id="uUtuyeQXyfnxlW9JzthO-72" value="Administrador&lt;br&gt;" style="shape=umlActor;verticalLabelPosition=bottom;verticalAlign=top;html=1;outlineConnect=0;" vertex="1" parent="1">
          <mxGeometry x="18" y="769" width="40" height="70" as="geometry" />
        </mxCell>
        <mxCell id="uUtuyeQXyfnxlW9JzthO-74" value="dados do cliente" style="ellipse;whiteSpace=wrap;html=1;" vertex="1" parent="1">
          <mxGeometry x="200" y="830" width="120" height="80" as="geometry" />
        </mxCell>
        <mxCell id="uUtuyeQXyfnxlW9JzthO-75" value="carrinho de compras" style="ellipse;whiteSpace=wrap;html=1;" vertex="1" parent="1">
          <mxGeometry x="550" y="830" width="120" height="80" as="geometry" />
        </mxCell>
        <mxCell id="uUtuyeQXyfnxlW9JzthO-76" value="" style="endArrow=none;html=1;entryX=-0.007;entryY=0.438;entryDx=0;entryDy=0;entryPerimeter=0;" edge="1" parent="1" target="uUtuyeQXyfnxlW9JzthO-74">
          <mxGeometry width="50" height="50" relative="1" as="geometry">
            <mxPoint x="60" y="810" as="sourcePoint" />
            <mxPoint x="450" y="740" as="targetPoint" />
          </mxGeometry>
        </mxCell>
        <mxCell id="uUtuyeQXyfnxlW9JzthO-77" value="" style="endArrow=none;html=1;entryX=1;entryY=0.5;entryDx=0;entryDy=0;exitX=0;exitY=0.5;exitDx=0;exitDy=0;" edge="1" parent="1" source="uUtuyeQXyfnxlW9JzthO-75" target="uUtuyeQXyfnxlW9JzthO-74">
          <mxGeometry width="50" height="50" relative="1" as="geometry">
            <mxPoint x="70" y="820" as="sourcePoint" />
            <mxPoint x="209.1600000000003" y="875.04" as="targetPoint" />
          </mxGeometry>
        </mxCell>
        <mxCell id="uUtuyeQXyfnxlW9JzthO-78" value="" style="endArrow=none;html=1;entryX=1;entryY=0.5;entryDx=0;entryDy=0;" edge="1" parent="1" target="uUtuyeQXyfnxlW9JzthO-75">
          <mxGeometry width="50" height="50" relative="1" as="geometry">
            <mxPoint x="780" y="820" as="sourcePoint" />
            <mxPoint x="209.1600000000003" y="875.04" as="targetPoint" />
          </mxGeometry>
        </mxCell>
      </root>
    </mxGraphModel>
  </diagram>
</mxfile>
